<?xml version="1.0" standalone="no"?>
<!DOCTYPE svg PUBLIC "-//W3C//DTD SVG 20010904//EN"
"http://www.w3.org/TR/2001/REC-SVG-20010904/DTD/svg10.dtd">
<svg version="1.0" xmlns="http://www.w3.org/2000/svg"
width="1000pt" height="1000pt" viewBox="0 0 10000 10000"
preserveAspectRatio="xMidYMid meet">
<g transform="translate(0.000000,10000) scale(1,-1)">
<!-- 左侧深紫色部分 -->
<path d="M1960 6038 l0 -2053 68 125 c203 371 455 703 774 1017 327 323 627
540 1038 751 l155 79 6 534 c3 294 7 771 8 1060 l1 526 -46 7 c-26 3 -487 6
-1025 6 l-979 0 0 -2052z" fill="#5848a3"/>

<!-- 右侧亮紫色部分 -->
<path d="M6230 7013 c0 -593 -4 -1083 -8 -1089 -4 -7 -112 -15 -297 -22 -329
-13 -515 -34 -801 -91 -710 -141 -1289 -395 -1794 -785 -127 -99 -437 -399
-522 -508 -278 -352 -483 -741 -624 -1182 -135 -420 -207 -893 -221 -1438 l-6
-257 34 -6 c40 -7 1995 -2 2003 5 2 3 0 39 -5 80 -38 280 10 732 107 1013 134
388 410 712 759 890 184 94 439 167 720 208 116 17 649 19 665 3 8 -8 8 -302
-1 -1098 -6 -598 -8 -1090 -4 -1094 9 -9 1867 -16 1963 -7 l72 7 -2 3221 -3
3222 -1017 3 -1018 2 0 -1077z" fill="#a963cf"/>
</g>
</svg>